<svg width="33" height="33" viewBox="0 0 33 33" fill="none" xmlns="http://www.w3.org/2000/svg">
<path d="M9 16.5001L1.5 21.5397L15.9633 31.2584C16.1601 31.3906 16.2585 31.4568 16.3617 31.4828C16.453 31.5057 16.547 31.5057 16.6383 31.4828C16.7415 31.4568 16.8399 31.3906 17.0367 31.2584L31.5 21.5397L24 16.5001M1.5 11.4603L15.9633 1.74164C16.1601 1.60942 16.2585 1.5433 16.3617 1.5173C16.453 1.49423 16.547 1.49423 16.6383 1.5173C16.7415 1.5433 16.8399 1.60942 17.0367 1.74164L31.5 11.4603L17.0367 21.1791C16.8399 21.3113 16.7415 21.3774 16.6383 21.4035C16.547 21.4264 16.453 21.4264 16.3617 21.4035C16.2585 21.3774 16.1601 21.3113 15.9633 21.1791L1.5 11.4603Z" stroke="#4F46E5" stroke-width="3" stroke-linecap="round" stroke-linejoin="round"/>
</svg>
