<svg width="23" height="33" viewBox="0 0 23 33" fill="none" xmlns="http://www.w3.org/2000/svg">
<path d="M9.83333 26.5H13.1667M6.83333 31.5H16.1667C18.0335 31.5 18.967 31.5 19.68 31.1367C20.3072 30.8172 20.8172 30.3072 21.1367 29.68C21.5 28.967 21.5 28.0335 21.5 26.1667V6.83333C21.5 4.9665 21.5 4.03307 21.1367 3.32003C20.8172 2.69282 20.3072 2.18288 19.68 1.86332C18.967 1.5 18.0335 1.5 16.1667 1.5H6.83333C4.9665 1.5 4.03307 1.5 3.32003 1.86332C2.69282 2.18288 2.18288 2.69282 1.86332 3.32003C1.5 4.03307 1.5 4.96648 1.5 6.83333V26.1667C1.5 28.0335 1.5 28.967 1.86332 29.68C2.18288 30.3072 2.69282 30.8172 3.32003 31.1367C4.03307 31.5 4.96648 31.5 6.83333 31.5Z" stroke="#922FEA" stroke-width="3" stroke-linecap="round" stroke-linejoin="round"/>
</svg>
