<svg width="30" height="30" viewBox="0 0 30 30" fill="none" xmlns="http://www.w3.org/2000/svg">
<path d="M15 0C6.72891 0 0 6.72896 0 15C0 23.2712 6.72891 30 15 30C23.2711 30 30 23.2712 30 15C30 6.72896 23.2711 0 15 0ZM25.8496 6.51129C27.5812 8.71184 28.658 11.4403 28.7862 14.4403H22.194C22.1538 12.1903 21.8903 10.0973 21.4474 8.23646C23.0817 7.81383 24.5769 7.23885 25.8496 6.51129ZM25.052 5.55557C23.9123 6.18047 22.585 6.68566 21.14 7.05861C20.4529 4.72395 19.4663 2.83119 18.2833 1.59568C20.915 2.24051 23.2528 3.64178 25.052 5.55557ZM9.00633 14.4403C9.04822 12.3403 9.31189 10.2664 9.74432 8.47289C11.4346 8.83008 13.2465 9 15.0973 9C16.8789 9 18.6261 8.84215 20.2645 8.50945C20.6918 10.2939 20.952 12.3403 20.9937 14.4403H9.00633ZM20.9937 15.6403C20.952 17.7403 20.6902 19.7595 20.2604 21.5481C18.5976 21.2041 16.82 21 15.004 21C13.1876 21 11.4063 21.2044 9.73998 21.55C9.31002 19.7608 9.04799 17.7403 9.00627 15.6403H20.9937V15.6403ZM15 1.2C17.0297 1.2 18.8626 3.66117 19.9539 7.32949C18.4167 7.636 16.775 7.8 15.0973 7.8C13.3506 7.8 11.6451 7.6241 10.0567 7.29393C11.1495 3.64541 12.9769 1.2 15 1.2ZM11.7167 1.59574C10.5416 2.82293 9.56045 4.69881 8.87385 7.01191C7.44504 6.6293 6.13594 6.11625 5.01416 5.48438C6.8042 3.60674 9.1173 2.23248 11.7167 1.59574ZM4.2123 6.42439C5.46756 7.16039 6.94465 7.76525 8.56389 8.19891C8.11406 10.0716 7.84658 12.1903 7.80598 14.4403H1.21377C1.34355 11.4403 2.44482 8.63795 4.2123 6.42439ZM4.18271 23.5893C2.43252 21.3819 1.34285 18.6403 1.21377 15.6403H7.80598C7.84629 17.8903 8.11195 19.9618 8.55844 21.829C6.93193 22.2574 5.44582 22.8577 4.18271 23.5893ZM4.98264 24.4818C6.11291 23.8536 7.43057 23.3442 8.86729 22.9661C9.55418 25.2894 10.5378 27.1732 11.7167 28.4043C9.10195 27.7638 6.77707 26.3766 4.98264 24.4818ZM15 28.8C12.9738 28.8 11.1437 26.3472 10.0516 22.6893C11.6162 22.3702 13.2915 22.2 15.0041 22.2C16.7161 22.2 18.3879 22.3699 19.9489 22.6874C18.8569 26.3463 17.0266 28.8 15 28.8ZM18.2833 28.4044C19.4627 27.1727 20.4468 25.288 21.1335 22.9633C22.5708 23.3409 23.8886 23.8504 25.02 24.4791C23.2251 26.3753 20.8993 27.7634 18.2833 28.4044ZM25.8205 23.5753C24.5556 22.8434 23.0689 22.2639 21.4421 21.8361C21.8883 19.9697 22.1537 17.8903 22.194 15.6403H28.7863C28.6573 18.6403 27.5689 21.3685 25.8205 23.5753Z" fill="#2364EB"/>
</svg>
